<svg width="21" height="20" viewBox="0 0 21 20" fill="none" xmlns="http://www.w3.org/2000/svg">
<path d="M10.5 0.833984C5.43543 0.833984 1.33334 4.93607 1.33334 10.0007C1.33334 14.0569 3.9573 17.4829 7.60105 18.6975C8.05938 18.7777 8.23126 18.5027 8.23126 18.2621C8.23126 18.0444 8.2198 17.3225 8.2198 16.5548C5.91668 16.9787 5.32084 15.9933 5.13751 15.4777C5.03438 15.2142 4.58751 14.4007 4.19793 14.1829C3.87709 14.0111 3.41876 13.5871 4.18647 13.5757C4.90834 13.5642 5.42397 14.2402 5.59584 14.5152C6.42084 15.9017 7.73855 15.5121 8.26564 15.2715C8.34584 14.6757 8.58647 14.2746 8.85001 14.0454C6.81043 13.8162 4.67918 13.0257 4.67918 9.5194C4.67918 8.52248 5.03438 7.69753 5.61876 7.05586C5.52709 6.82669 5.20626 5.88711 5.71043 4.62669C5.71043 4.62669 6.47813 4.38607 8.23126 5.56628C8.96459 5.36003 9.74376 5.2569 10.5229 5.2569C11.3021 5.2569 12.0813 5.36003 12.8146 5.56628C14.5678 4.37461 15.3354 4.62669 15.3354 4.62669C15.8396 5.88711 15.5188 6.82669 15.4271 7.05586C16.0115 7.69753 16.3667 8.51107 16.3667 9.5194C16.3667 13.0371 14.224 13.8162 12.1844 14.0454C12.5167 14.3319 12.8032 14.8819 12.8032 15.7412C12.8032 16.9673 12.7917 17.9527 12.7917 18.2621C12.7917 18.5027 12.9636 18.7892 13.4219 18.6975C17.0428 17.4829 19.6667 14.0454 19.6667 10.0007C19.6667 4.93607 15.5646 0.833984 10.5 0.833984Z" fill="#25292E"/>
</svg>
