<svg width="16" height="16" viewBox="0 0 16 16" fill="none" xmlns="http://www.w3.org/2000/svg">
<path d="M10.7752 4.55871C12.9251 6.02017 14 6.7509 14 8.00071C14 9.25051 12.9251 9.98124 10.7752 11.4427C10.1817 11.8461 9.59312 12.226 9.05222 12.5425C8.57769 12.8202 8.04027 13.1074 7.48387 13.3894C5.33906 14.4763 4.26666 15.0197 3.30483 14.418C2.343 13.8164 2.25559 12.5568 2.08076 10.0376C2.03132 9.32521 2 8.62681 2 8.00071C2 7.37461 2.03132 6.67621 2.08076 5.96379C2.25559 3.44463 2.343 2.18505 3.30483 1.58337C4.26666 0.981687 5.33906 1.52513 7.48387 2.61202C8.04027 2.89398 8.57769 3.18122 9.05222 3.4589C9.59312 3.77542 10.1817 4.15527 10.7752 4.55871Z" fill="#0C62F9"/>
</svg>
