<svg width="20" height="20" viewBox="0 0 20 20" fill="none" xmlns="http://www.w3.org/2000/svg">
<g clip-path="url(#clip0_4138_17379)">
<path d="M4.43242 12.0855L3.73625 14.6845L1.19176 14.7383C0.431328 13.3279 0 11.7141 0 9.9993C0 8.34105 0.403281 6.7773 1.11812 5.40039H1.11867L3.38398 5.8157L4.37633 8.06742C4.16863 8.67293 4.05543 9.32293 4.05543 9.9993C4.05551 10.7334 4.18848 11.4367 4.43242 12.0855Z" fill="#FBBB00"/>
<path d="M19.8253 8.13281C19.9401 8.73773 20 9.36246 20 10.0009C20 10.7169 19.9247 11.4152 19.7813 12.0889C19.2945 14.3812 18.0225 16.3828 16.2605 17.7993L16.2599 17.7987L13.4066 17.6532L13.0028 15.1323C14.172 14.4466 15.0858 13.3735 15.5671 12.0889H10.2198V8.13281H15.6451H19.8253Z" fill="#518EF8"/>
<path d="M16.2599 17.7975L16.2604 17.798C14.5467 19.1755 12.3698 19.9996 10 19.9996C6.19177 19.9996 2.8808 17.8711 1.19177 14.7387L4.43244 12.0859C5.27693 14.3398 7.45111 15.9442 10 15.9442C11.0956 15.9442 12.122 15.648 13.0027 15.131L16.2599 17.7975Z" fill="#28B446"/>
<path d="M16.3829 2.30219L13.1434 4.95437C12.2319 4.38461 11.1544 4.05547 9.99998 4.05547C7.39338 4.05547 5.17853 5.73348 4.37635 8.06812L1.11865 5.40109H1.1181C2.7824 2.1923 6.13513 0 9.99998 0C12.4263 0 14.6511 0.864297 16.3829 2.30219Z" fill="#F14336"/>
</g>
<defs>
<clipPath id="clip0_4138_17379">
<rect width="20" height="20" fill="white"/>
</clipPath>
</defs>
</svg>
