<svg width="16" height="16" viewBox="0 0 16 16" fill="none" xmlns="http://www.w3.org/2000/svg">
<path d="M1.33334 4.00065C1.33334 2.74357 1.33334 2.11503 1.72387 1.72451C2.11439 1.33398 2.74293 1.33398 4.00001 1.33398C5.25709 1.33398 5.88563 1.33398 6.27615 1.72451C6.66668 2.11503 6.66668 2.74357 6.66668 4.00065V12.0007C6.66668 13.2577 6.66668 13.8863 6.27615 14.2768C5.88563 14.6673 5.25709 14.6673 4.00001 14.6673C2.74293 14.6673 2.11439 14.6673 1.72387 14.2768C1.33334 13.8863 1.33334 13.2577 1.33334 12.0007V4.00065Z" fill="#EC4D3D"/>
<path d="M9.33334 4.00065C9.33334 2.74357 9.33334 2.11503 9.72387 1.72451C10.1144 1.33398 10.7429 1.33398 12 1.33398C13.2571 1.33398 13.8856 1.33398 14.2762 1.72451C14.6667 2.11503 14.6667 2.74357 14.6667 4.00065V12.0007C14.6667 13.2577 14.6667 13.8863 14.2762 14.2768C13.8856 14.6673 13.2571 14.6673 12 14.6673C10.7429 14.6673 10.1144 14.6673 9.72387 14.2768C9.33334 13.8863 9.33334 13.2577 9.33334 12.0007V4.00065Z" fill="#EC4D3D"/>
</svg>
