<svg width="20" height="20" viewBox="0 0 20 20" fill="none" xmlns="http://www.w3.org/2000/svg">
<path fill-rule="evenodd" clip-rule="evenodd" d="M10 6.87435C8.27412 6.87435 6.87501 8.27346 6.87501 9.99935C6.87501 11.7252 8.27412 13.1243 10 13.1243C11.7259 13.1243 13.125 11.7252 13.125 9.99935C13.125 8.27346 11.7259 6.87435 10 6.87435ZM8.12501 9.99935C8.12501 8.96382 8.96448 8.12435 10 8.12435C11.0355 8.12435 11.875 8.96382 11.875 9.99935C11.875 11.0349 11.0355 11.8743 10 11.8743C8.96448 11.8743 8.12501 11.0349 8.12501 9.99935Z" fill="#7A7A7E"/>
<path fill-rule="evenodd" clip-rule="evenodd" d="M9.97896 1.04102C9.60858 1.04101 9.29938 1.041 9.04553 1.05832C8.78128 1.07635 8.53168 1.11522 8.28969 1.21546C7.72817 1.44805 7.28204 1.89418 7.04945 2.4557C6.92836 2.74803 6.89557 3.05611 6.88304 3.39099C6.87298 3.66018 6.73712 3.88477 6.53664 4.00052C6.33615 4.11627 6.07372 4.12162 5.83556 3.99575C5.53929 3.83916 5.25608 3.71351 4.94237 3.67221C4.33978 3.59288 3.73036 3.75617 3.24817 4.12617C3.04037 4.28562 2.8819 4.48235 2.73416 4.70218C2.59224 4.91336 2.43765 5.18114 2.25246 5.5019L2.23142 5.53836C2.04622 5.85911 1.89162 6.12688 1.77969 6.35538C1.66318 6.59324 1.57204 6.82884 1.53785 7.08852C1.45852 7.69111 1.62182 8.30053 1.99181 8.78272C2.18441 9.03372 2.43478 9.21615 2.71848 9.39441C2.94663 9.53776 3.07324 9.76778 3.07323 9.99933C3.07322 10.2309 2.94661 10.4608 2.71849 10.6042C2.43475 10.7825 2.18435 10.9649 1.99173 11.2159C1.62173 11.6981 1.45844 12.3075 1.53777 12.9101C1.57196 13.1698 1.6631 13.4054 1.77961 13.6433C1.89153 13.8718 2.04613 14.1395 2.23133 14.4603L2.25238 14.4967C2.43757 14.8175 2.59216 15.0853 2.73408 15.2965C2.88182 15.5163 3.04029 15.713 3.24809 15.8725C3.73028 16.2425 4.3397 16.4058 4.94229 16.3264C5.25598 16.2851 5.53917 16.1595 5.83543 16.0029C6.07362 15.877 6.33608 15.8824 6.5366 15.9981C6.73711 16.1139 6.87298 16.3385 6.88305 16.6078C6.89557 16.9426 6.92837 17.2507 7.04945 17.543C7.28204 18.1045 7.72817 18.5506 8.28969 18.7832C8.53168 18.8835 8.78128 18.9223 9.04553 18.9404C9.29938 18.9577 9.60857 18.9577 9.97896 18.9577H10.0211C10.3914 18.9577 10.7006 18.9577 10.9545 18.9404C11.2187 18.9223 11.4683 18.8835 11.7103 18.7832C12.2718 18.5506 12.718 18.1045 12.9506 17.543C13.0717 17.2507 13.1044 16.9426 13.117 16.6077C13.127 16.3385 13.2629 16.1139 13.4634 15.9981C13.6639 15.8823 13.9263 15.877 14.1645 16.0029C14.4608 16.1594 14.744 16.2851 15.0576 16.3264C15.6602 16.4057 16.2696 16.2424 16.7518 15.8724C16.9596 15.713 17.1181 15.5162 17.2658 15.2964C17.4078 15.0852 17.5623 14.8175 17.7475 14.4967L17.7686 14.4603C17.9538 14.1395 18.1084 13.8717 18.2203 13.6432C18.3368 13.4053 18.428 13.1697 18.4622 12.9101C18.5415 12.3075 18.3782 11.6981 18.0082 11.2159C17.8156 10.9648 17.5652 10.7824 17.2815 10.6041C17.0534 10.4608 16.9268 10.2308 16.9268 9.99931C16.9268 9.7678 17.0534 9.53786 17.2815 9.39455C17.5652 9.21626 17.8156 9.03382 18.0083 8.78278C18.3783 8.30059 18.5416 7.69117 18.4622 7.08858C18.428 6.82889 18.3369 6.5933 18.2204 6.35543C18.1085 6.12695 17.9539 5.85921 17.7687 5.53848L17.7477 5.502C17.5625 5.18123 17.4078 4.91342 17.2659 4.70224C17.1182 4.48241 16.9597 4.28568 16.7519 4.12623C16.2697 3.75623 15.6603 3.59294 15.0577 3.67227C14.744 3.71357 14.4608 3.8392 14.1646 3.99578C13.9264 4.12167 13.6639 4.11632 13.4634 4.00055C13.2629 3.88479 13.127 3.66016 13.117 3.39094C13.1044 3.05608 13.0716 2.74802 12.9506 2.4557C12.718 1.89418 12.2718 1.44805 11.7103 1.21546C11.4683 1.11522 11.2187 1.07635 10.9545 1.05832C10.7006 1.041 10.3914 1.04101 10.021 1.04102H9.97896ZM8.76804 2.37031C8.83234 2.34368 8.93002 2.31911 9.13062 2.30542C9.33684 2.29135 9.60317 2.29102 10 2.29102C10.3968 2.29102 10.6632 2.29135 10.8694 2.30542C11.07 2.31911 11.1677 2.34368 11.232 2.37031C11.4872 2.47603 11.69 2.67882 11.7957 2.93405C11.8291 3.01457 11.8567 3.14008 11.8678 3.43766C11.8925 4.09797 12.2334 4.73375 12.8384 5.08308C13.4435 5.43241 14.1645 5.40968 14.7487 5.10091C15.012 4.96176 15.1345 4.92295 15.2209 4.91157C15.4948 4.87551 15.7718 4.94974 15.991 5.11792C16.0462 5.16028 16.1163 5.23259 16.2284 5.39948C16.3437 5.57104 16.4772 5.80151 16.6756 6.14518C16.874 6.48885 17.0069 6.71967 17.0978 6.90529C17.1863 7.08587 17.2138 7.18274 17.2229 7.25174C17.259 7.52564 17.1848 7.80265 17.0166 8.02183C16.9635 8.09097 16.8686 8.17768 16.6165 8.33613C16.057 8.68764 15.6768 9.30064 15.6768 9.99924C15.6767 10.6979 16.0569 11.311 16.6164 11.6626C16.8686 11.821 16.9635 11.9077 17.0165 11.9768C17.1847 12.196 17.2589 12.473 17.2228 12.7469C17.2138 12.8159 17.1862 12.9128 17.0978 13.0933C17.0068 13.279 16.874 13.5098 16.6755 13.8535C16.4771 14.1971 16.3437 14.4276 16.2284 14.5992C16.1162 14.766 16.0461 14.8384 15.9909 14.8807C15.7717 15.0489 15.4947 15.1231 15.2208 15.0871C15.1344 15.0757 15.0119 15.0369 14.7486 14.8977C14.1644 14.589 13.4434 14.5663 12.8383 14.9156C12.2333 15.265 11.8925 15.9007 11.8678 16.561C11.8567 16.8586 11.8291 16.9841 11.7957 17.0646C11.69 17.3199 11.4872 17.5227 11.232 17.6284C11.1677 17.655 11.07 17.6796 10.8694 17.6933C10.6632 17.7073 10.3968 17.7077 10 17.7077C9.60317 17.7077 9.33684 17.7073 9.13062 17.6933C8.93002 17.6796 8.83234 17.655 8.76804 17.6284C8.5128 17.5227 8.31002 17.3199 8.2043 17.0646C8.17095 16.9841 8.1433 16.8586 8.13217 16.561C8.10748 15.9007 7.76665 15.2649 7.16159 14.9156C6.55654 14.5663 5.83553 14.589 5.25133 14.8978C4.98805 15.0369 4.86553 15.0757 4.77913 15.0871C4.50523 15.1232 4.22822 15.049 4.00904 14.8808C3.95383 14.8384 3.88372 14.7661 3.77156 14.5992C3.65626 14.4277 3.52281 14.1972 3.32439 13.8535C3.12597 13.5098 2.9931 13.279 2.90218 13.0934C2.81373 12.9128 2.78616 12.816 2.77708 12.747C2.74102 12.4731 2.81524 12.196 2.98342 11.9769C3.03648 11.9077 3.13135 11.821 3.38351 11.6626C3.943 11.3111 4.32319 10.698 4.32323 9.9994C4.32327 9.30068 3.94305 8.68758 3.38352 8.336C3.13141 8.17759 3.03655 8.0909 2.98351 8.02177C2.81532 7.8026 2.7411 7.52559 2.77716 7.25168C2.78624 7.18269 2.81381 7.08581 2.90226 6.90524C2.99318 6.71961 3.12605 6.4888 3.32447 6.14513C3.52289 5.80146 3.65635 5.57098 3.77164 5.39942C3.8838 5.23254 3.95391 5.16023 4.00912 5.11786C4.2283 4.94968 4.50531 4.87546 4.77921 4.91152C4.86562 4.92289 4.98814 4.96171 5.25145 5.10088C5.83562 5.40964 6.5566 5.43237 7.16163 5.08306C7.76666 4.73375 8.10748 4.09799 8.13217 3.4377C8.1433 3.14009 8.17094 3.01457 8.2043 2.93405C8.31002 2.67882 8.5128 2.47603 8.76804 2.37031Z" fill="#7A7A7E"/>
</svg>
