<svg width="20" height="20" viewBox="0 0 20 20" fill="none" xmlns="http://www.w3.org/2000/svg">
<path fill-rule="evenodd" clip-rule="evenodd" d="M9.58335 2.29102C5.55628 2.29102 2.29169 5.55561 2.29169 9.58268C2.29169 13.6098 5.55628 16.8743 9.58335 16.8743C13.6104 16.8743 16.875 13.6098 16.875 9.58268C16.875 5.55561 13.6104 2.29102 9.58335 2.29102ZM1.04169 9.58268C1.04169 4.86525 4.86592 1.04102 9.58335 1.04102C14.3008 1.04102 18.125 4.86525 18.125 9.58268C18.125 11.7164 17.3426 13.6675 16.0491 15.1645L18.7753 17.8907C19.0194 18.1348 19.0194 18.5305 18.7753 18.7746C18.5312 19.0187 18.1355 19.0187 17.8914 18.7746L15.1652 16.0484C13.6681 17.342 11.7171 18.1243 9.58335 18.1243C4.86592 18.1243 1.04169 14.3001 1.04169 9.58268Z" fill="#7A7A7E"/>
</svg>
