<svg width="21" height="20" viewBox="0 0 21 20" fill="none" xmlns="http://www.w3.org/2000/svg">
<g clip-path="url(#clip0_4118_18599)">
<path d="M16.7631 12.2907V9.18102C16.7631 8.85559 16.4993 8.5918 16.1738 8.5918H1.13579C0.810399 8.5918 0.54657 8.85559 0.54657 9.18102V12.2907C0.54657 15.0385 2.06747 17.4546 4.35084 18.8196H1.13614C0.81075 18.8196 0.546921 19.0833 0.546921 19.4088C0.546921 19.7342 0.810672 19.998 1.13614 19.998H16.1739C16.4993 19.998 16.7631 19.7342 16.7631 19.4088C16.7631 19.0834 16.4993 18.8196 16.1739 18.8196H12.9589C15.2421 17.4546 16.7631 15.0385 16.7631 12.2907Z" fill="white"/>
<path d="M17.9406 9.65625V10.8607C18.7096 11.0721 19.2764 11.7771 19.2764 12.6124C19.2764 13.5422 18.5742 14.3106 17.6724 14.4163C17.5673 14.8252 17.4327 15.223 17.2706 15.6076H17.4595C19.1111 15.6076 20.4548 14.264 20.4548 12.6124C20.4548 11.1245 19.3642 9.88715 17.9406 9.65625Z" fill="white"/>
<path d="M12.764 3.85262C13.5328 3.23156 13.7069 2.56765 13.7174 2.12004C13.7433 1.03109 12.8834 0.234212 12.7852 0.146986C12.5421 -0.0692649 12.1697 -0.047468 11.9534 0.195697C11.7372 0.438861 11.759 0.811245 12.0021 1.02753C12.0076 1.03246 12.5524 1.54214 12.5393 2.09211C12.5324 2.38512 12.3636 2.66113 12.0234 2.93594C11.2546 3.55699 11.0806 4.2209 11.07 4.66852C11.0441 5.75747 11.904 6.55434 12.0021 6.64161C12.1147 6.74169 12.2551 6.79098 12.395 6.79098C12.5574 6.79098 12.719 6.72458 12.8351 6.59391C13.0514 6.35075 13.0308 5.97938 12.7876 5.76313C12.6329 5.6225 12.2346 5.15598 12.2481 4.69203C12.2567 4.40067 12.4254 4.12606 12.764 3.85262Z" fill="white"/>
<path d="M9.0239 3.85262C9.79273 3.23156 9.9668 2.56765 9.97738 2.12004C10.0032 1.03109 9.14336 0.234212 9.04519 0.146986C8.80211 -0.0692649 8.42965 -0.047468 8.21336 0.195697C7.99711 0.438861 8.0189 0.811245 8.26207 1.02753C8.26757 1.03246 8.81234 1.54214 8.79929 2.09211C8.79234 2.38512 8.62359 2.66113 8.2834 2.93594C7.51457 3.55699 7.3405 4.2209 7.32992 4.66852C7.30406 5.75747 8.16394 6.55434 8.26207 6.64161C8.37461 6.74169 8.51508 6.79098 8.65496 6.79098C8.8173 6.79098 8.9789 6.72458 9.09508 6.59391C9.31133 6.35075 9.2907 5.97938 9.04754 5.76313C8.89289 5.6225 8.49453 5.15598 8.50808 4.69203C8.51664 4.40067 8.68535 4.12606 9.0239 3.85262Z" fill="white"/>
<path d="M5.28568 3.85262C6.05451 3.23156 6.22858 2.56765 6.23916 2.12004C6.26502 1.03109 5.40514 0.234212 5.30697 0.146986C5.06385 -0.0692649 4.69142 -0.047468 4.47513 0.195697C4.25888 0.438822 4.28068 0.811245 4.52385 1.02753C4.52935 1.03246 5.07412 1.54214 5.06107 2.09211C5.05412 2.38511 4.88537 2.66113 4.54517 2.93594C3.77634 3.55699 3.60228 4.2209 3.5917 4.66852C3.56587 5.75743 4.42576 6.5543 4.52388 6.64157C4.63615 6.74141 4.77596 6.79051 4.91525 6.79051C5.07764 6.79051 5.23932 6.72376 5.35576 6.59286C5.57201 6.34969 5.55021 5.97731 5.30705 5.76102C5.30154 5.7561 4.75678 5.24641 4.76982 4.69645C4.77674 4.40344 4.94549 4.12738 5.28568 3.85262Z" fill="white"/>
</g>
<defs>
<clipPath id="clip0_4118_18599">
<rect width="20" height="20" fill="white" transform="translate(0.5)"/>
</clipPath>
</defs>
</svg>
