<svg width="64" height="64" viewBox="0 0 64 64" fill="none" xmlns="http://www.w3.org/2000/svg">
<rect width="64" height="64" rx="16" fill="#EC445A" fill-opacity="0.1"/>
<path fill-rule="evenodd" clip-rule="evenodd" d="M32 19.667C25.1884 19.667 19.6666 25.1888 19.6666 32.0003C19.6666 38.8118 25.1884 44.3337 32 44.3337C38.8115 44.3337 44.3333 38.8118 44.3333 32.0003C44.3333 25.1888 38.8115 19.667 32 19.667ZM17.6666 32.0003C17.6666 24.0842 24.0839 17.667 32 17.667C39.916 17.667 46.3333 24.0842 46.3333 32.0003C46.3333 39.9164 39.916 46.3337 32 46.3337C24.0839 46.3337 17.6666 39.9164 17.6666 32.0003ZM32 25.667C32.5522 25.667 33 26.1147 33 26.667V31.5861L36.0404 34.6266C36.4309 35.0171 36.4309 35.6502 36.0404 36.0408C35.6499 36.4313 35.0167 36.4313 34.6262 36.0408L31.2929 32.7074C31.1053 32.5199 31 32.2655 31 32.0003V26.667C31 26.1147 31.4477 25.667 32 25.667Z" fill="#EC445A"/>
</svg>
