<svg width="64" height="64" viewBox="0 0 64 64" fill="none" xmlns="http://www.w3.org/2000/svg">
<rect width="64" height="64" rx="16" fill="#0726D9" fill-opacity="0.1"/>
<path d="M31.9999 46.3337C31.6799 46.3337 31.3599 46.2938 31.0532 46.2004C24.1332 44.2938 19.1199 37.827 19.1199 30.8137V24.9604C19.1199 23.467 20.1999 21.8538 21.5865 21.2804L29.0132 18.2404C30.9466 17.4537 33.0665 17.4537 34.9865 18.2404L42.4132 21.2804C43.7999 21.8538 44.8799 23.467 44.8799 24.9604V30.8137C44.8799 37.8137 39.8532 44.2804 32.9465 46.2004C32.6399 46.2938 32.3199 46.3337 31.9999 46.3337ZM31.9999 19.6671C31.2399 19.6671 30.4932 19.8138 29.7732 20.1071L22.3466 23.147C21.7066 23.4137 21.1199 24.2804 21.1199 24.9737V30.8271C21.1199 36.9471 25.5199 42.6004 31.5865 44.2804C31.8532 44.3604 32.1465 44.3604 32.4132 44.2804C38.4799 42.6004 42.8799 36.9471 42.8799 30.8271V24.9737C42.8799 24.2804 42.2932 23.4137 41.6532 23.147L34.2266 20.1071C33.5066 19.8138 32.7599 19.6671 31.9999 19.6671Z" fill="#0726D9"/>
<path d="M31.9999 33.6673C29.9733 33.6673 28.3333 32.0273 28.3333 30.0007C28.3333 27.974 29.9733 26.334 31.9999 26.334C34.0266 26.334 35.6666 27.974 35.6666 30.0007C35.6666 32.0273 34.0266 33.6673 31.9999 33.6673ZM31.9999 28.334C31.0799 28.334 30.3333 29.0807 30.3333 30.0007C30.3333 30.9207 31.0799 31.6673 31.9999 31.6673C32.9199 31.6673 33.6666 30.9207 33.6666 30.0007C33.6666 29.0807 32.9199 28.334 31.9999 28.334Z" fill="#0726D9"/>
<path d="M32 37.666C31.4533 37.666 31 37.2127 31 36.666V32.666C31 32.1193 31.4533 31.666 32 31.666C32.5467 31.666 33 32.1193 33 32.666V36.666C33 37.2127 32.5467 37.666 32 37.666Z" fill="#0726D9"/>
</svg>
