<svg width="20" height="20" viewBox="0 0 20 20" fill="none" xmlns="http://www.w3.org/2000/svg">
<path fill-rule="evenodd" clip-rule="evenodd" d="M18.5795 5.25968C18.8968 5.39565 19.0438 5.76308 18.9078 6.08034L18.3333 5.83414C18.9078 6.08034 18.9079 6.0802 18.9078 6.08034L18.9072 6.08174L18.9063 6.08381L18.9036 6.08995L18.8947 6.11001C18.8872 6.12679 18.8766 6.1503 18.8627 6.18004C18.835 6.2395 18.7944 6.32393 18.7407 6.42927C18.6333 6.63981 18.473 6.93471 18.2571 7.2812C17.9024 7.8504 17.3937 8.56552 16.7183 9.27596L17.5253 10.0829C17.7693 10.327 17.7693 10.7227 17.5253 10.9668C17.2812 11.2109 16.8855 11.2109 16.6414 10.9668L15.8076 10.133C15.2578 10.5935 14.6274 11.0258 13.9126 11.381L14.6905 12.5766C14.8788 12.8659 14.7968 13.2531 14.5075 13.4413C14.2182 13.6296 13.831 13.5477 13.6428 13.2583L12.7352 11.8634C12.0857 12.0755 11.3825 12.2197 10.625 12.2713V13.7508C10.625 14.096 10.3452 14.3758 9.99999 14.3758C9.65481 14.3758 9.37499 14.096 9.37499 13.7508V12.2713C8.6408 12.2212 7.95763 12.0843 7.3249 11.8828L6.42984 13.2584C6.24159 13.5477 5.85443 13.6297 5.56511 13.4414C5.27579 13.2531 5.19386 12.866 5.38211 12.5767L6.14246 11.4081C5.42214 11.0564 4.78656 10.626 4.23207 10.166L3.43125 10.9668C3.18718 11.2109 2.79145 11.2109 2.54737 10.9668C2.30329 10.7228 2.30329 10.327 2.54737 10.083L3.31717 9.31316C2.63004 8.59675 2.11276 7.87294 1.75236 7.29637C1.53325 6.94584 1.37055 6.64718 1.26162 6.43389C1.20712 6.32717 1.16597 6.2416 1.13786 6.18134C1.1238 6.15121 1.11299 6.12738 1.1054 6.11038L1.0964 6.09006L1.0937 6.08385L1.0928 6.08176L1.09245 6.08096C1.09239 6.08082 1.09219 6.08034 1.66665 5.83414L1.09245 6.08096C0.956482 5.7637 1.10319 5.39565 1.42045 5.25968C1.73746 5.12382 2.10454 5.27043 2.24078 5.58716C2.24074 5.58705 2.24083 5.58727 2.24078 5.58716L2.24158 5.58899L2.24664 5.60042C2.25155 5.61141 2.25955 5.62907 2.27065 5.65288C2.29288 5.70051 2.32752 5.77269 2.37485 5.86537C2.46959 6.05089 2.61473 6.3177 2.81232 6.63381C3.20866 7.26787 3.80969 8.09005 4.62972 8.85214C5.35131 9.52273 6.23554 10.1404 7.29309 10.5473C8.0885 10.8533 8.98786 11.0425 9.99999 11.0425C11.0347 11.0425 11.9518 10.8448 12.7604 10.5265C13.8115 10.1127 14.6898 9.49102 15.4056 8.81914C16.2135 8.06078 16.8057 7.24678 17.1962 6.62015C17.3908 6.30773 17.5338 6.04437 17.6272 5.86137C17.6738 5.76994 17.7079 5.69878 17.7298 5.65185C17.7407 5.62839 17.7486 5.611 17.7534 5.60018L17.7584 5.58894L17.7589 5.58795C17.7588 5.58803 17.7589 5.58786 17.7589 5.58795M18.5795 5.25968C18.2623 5.12374 17.8949 5.27085 17.7589 5.58795L18.5795 5.25968ZM2.24078 5.58716C2.24074 5.58705 2.24083 5.58727 2.24078 5.58716V5.58716Z" fill="#C5C5C5"/>
</svg>
