<svg width="48" height="48" viewBox="0 0 48 48" fill="none" xmlns="http://www.w3.org/2000/svg">
<g filter="url(#filter0_d_10549_18214)">
<rect x="4" y="2" width="40" height="40" rx="8" fill="white"/>
<rect x="4.5" y="2.5" width="39" height="39" rx="7.5" stroke="#E0E0E0"/>
<path d="M23.1667 28.6666H31.5V20.6666C31.5 19.562 30.6046 18.6666 29.5 18.6666H26.5M23.1667 25.3333H23.175M28.1667 25.3333H28.175M19.8333 25.3333H19.8417M23.1667 21.9999H23.175M28.1667 21.9999H28.175M19.8333 21.9999H19.8417M23.1667 18.6666H23.175M19.8333 18.6666H19.8417M26.5 28.6666V17.3333C26.5 16.2287 25.6046 15.3333 24.5 15.3333H18.5C17.3954 15.3333 16.5 16.2287 16.5 17.3333V28.6666H26.5Z" stroke="#0C62F9" stroke-width="1.2" stroke-linecap="round" stroke-linejoin="round"/>
</g>
<defs>
<filter id="filter0_d_10549_18214" x="0" y="0" width="48" height="48" filterUnits="userSpaceOnUse" color-interpolation-filters="sRGB">
<feFlood flood-opacity="0" result="BackgroundImageFix"/>
<feColorMatrix in="SourceAlpha" type="matrix" values="0 0 0 0 0 0 0 0 0 0 0 0 0 0 0 0 0 0 127 0" result="hardAlpha"/>
<feOffset dy="2"/>
<feGaussianBlur stdDeviation="2"/>
<feComposite in2="hardAlpha" operator="out"/>
<feColorMatrix type="matrix" values="0 0 0 0 0.176471 0 0 0 0 0.203922 0 0 0 0 0.223529 0 0 0 0.04 0"/>
<feBlend mode="normal" in2="BackgroundImageFix" result="effect1_dropShadow_10549_18214"/>
<feBlend mode="normal" in="SourceGraphic" in2="effect1_dropShadow_10549_18214" result="shape"/>
</filter>
</defs>
</svg>
