<svg width="20" height="20" viewBox="0 0 20 20" fill="none" xmlns="http://www.w3.org/2000/svg">
<path d="M10 1.04199C14.9476 1.04199 18.958 5.05245 18.958 10C18.958 14.9476 14.9476 18.958 10 18.958C5.05245 18.958 1.04199 14.9476 1.04199 10C1.04199 5.05245 5.05245 1.04199 10 1.04199ZM10 2.29199C5.74281 2.29199 2.29199 5.74281 2.29199 10C2.29199 14.2572 5.74281 17.708 10 17.708C14.2572 17.708 17.708 14.2572 17.708 10C17.708 5.74281 14.2572 2.29199 10 2.29199ZM10 12.5C10.4601 12.5 10.8328 12.8729 10.833 13.333C10.833 13.7932 10.4602 14.167 10 14.167C9.53976 14.167 9.16699 13.7932 9.16699 13.333C9.16717 12.8729 9.53987 12.5 10 12.5ZM10 5.20801C11.208 5.20801 12.1873 6.18753 12.1875 7.39551C12.1875 8.19829 11.7543 8.89947 11.1123 9.2793C10.9487 9.37614 10.8137 9.4822 10.7256 9.58594C10.64 9.68682 10.625 9.75333 10.625 9.79199V10.833C10.625 11.1782 10.3452 11.458 10 11.458C9.65482 11.458 9.375 11.1782 9.375 10.833V9.79199C9.375 9.37042 9.55986 9.02786 9.77246 8.77734C9.98245 8.52997 10.2445 8.3414 10.4766 8.2041C10.754 8.03993 10.9375 7.73845 10.9375 7.39551C10.9373 6.87789 10.5177 6.45801 10 6.45801C9.48234 6.45801 9.06268 6.87789 9.0625 7.39551C9.0625 7.74069 8.78268 8.02051 8.4375 8.02051C8.09232 8.02051 7.8125 7.74069 7.8125 7.39551C7.81268 6.18753 8.79199 5.20801 10 5.20801Z" fill="#7A7A7E"/>
</svg>
