<svg width="25" height="25" viewBox="0 0 25 25" fill="none" xmlns="http://www.w3.org/2000/svg">
<path d="M12.5789 2.75C7.7854 2.75 3.84478 6.413 3.46055 11.0833H2.50002C2.19614 11.0833 1.92229 11.2667 1.80655 11.5477C1.69081 11.8287 1.75606 12.1517 1.97178 12.3657L3.65159 14.0324C3.944 14.3225 4.41567 14.3225 4.70808 14.0324L6.38789 12.3657C6.60361 12.1517 6.66886 11.8287 6.55312 11.5477C6.43738 11.2667 6.16353 11.0833 5.85965 11.0833H4.9668C5.34652 7.25167 8.60479 4.25 12.5789 4.25C15.3484 4.25 17.7727 5.70845 19.1156 7.89279C19.3325 8.24565 19.7944 8.35585 20.1473 8.13892C20.5002 7.92199 20.6104 7.46007 20.3934 7.10721C18.7871 4.49427 15.8873 2.75 12.5789 2.75Z" fill="white"/>
<path d="M21.3411 10.9666C21.049 10.6778 20.5789 10.6778 20.2867 10.9666L18.6005 12.6333C18.3841 12.8471 18.3184 13.1703 18.4339 13.4517C18.5495 13.733 18.8235 13.9167 19.1277 13.9167H20.0268C19.6455 17.7462 16.3759 20.75 12.3828 20.75C9.60026 20.75 7.16586 19.2903 5.81796 17.1061C5.60042 16.7536 5.13833 16.6442 4.78583 16.8618C4.43334 17.0793 4.32393 17.5414 4.54146 17.8939C6.15407 20.507 9.06406 22.25 12.3828 22.25C17.1906 22.25 21.1475 18.5892 21.5331 13.9167H22.5002C22.8043 13.9167 23.0783 13.733 23.1939 13.4517C23.3095 13.1703 23.2437 12.8471 23.0274 12.6333L21.3411 10.9666Z" fill="white"/>
</svg>
