<svg width="20" height="20" viewBox="0 0 20 20" fill="none" xmlns="http://www.w3.org/2000/svg">
<path fill-rule="evenodd" clip-rule="evenodd" d="M9.99999 6.87565C8.2741 6.87565 6.87499 8.27476 6.87499 10.0007C6.87499 11.7265 8.2741 13.1257 9.99999 13.1257C11.7259 13.1257 13.125 11.7265 13.125 10.0007C13.125 8.27476 11.7259 6.87565 9.99999 6.87565ZM8.12499 10.0007C8.12499 8.96512 8.96446 8.12565 9.99999 8.12565C11.0355 8.12565 11.875 8.96512 11.875 10.0007C11.875 11.0362 11.0355 11.8757 9.99999 11.8757C8.96446 11.8757 8.12499 11.0362 8.12499 10.0007Z" fill="#C5C5C5"/>
<path fill-rule="evenodd" clip-rule="evenodd" d="M9.99999 2.70898C6.23821 2.70898 3.7044 4.96248 2.2338 6.87304L2.20727 6.90748C1.87469 7.33943 1.56837 7.73725 1.36056 8.20765C1.13803 8.71138 1.04166 9.26039 1.04166 10.0007C1.04166 10.7409 1.13803 11.2899 1.36056 11.7937C1.56837 12.2641 1.87469 12.6619 2.20728 13.0938L2.2338 13.1283C3.7044 15.0388 6.23821 17.2923 9.99999 17.2923C13.7618 17.2923 16.2956 15.0388 17.7662 13.1283L17.7927 13.0938C18.1253 12.6619 18.4316 12.2641 18.6394 11.7937C18.862 11.2899 18.9583 10.7409 18.9583 10.0007C18.9583 9.26039 18.862 8.71138 18.6394 8.20765C18.4316 7.73724 18.1253 7.33942 17.7927 6.90746L17.7662 6.87304C16.2956 4.96248 13.7618 2.70898 9.99999 2.70898ZM3.22434 7.63548C4.58219 5.87142 6.79196 3.95898 9.99999 3.95898C13.208 3.95898 15.4178 5.87142 16.7756 7.63548C17.1411 8.11031 17.3552 8.39403 17.496 8.71277C17.6276 9.01066 17.7083 9.37476 17.7083 10.0007C17.7083 10.6265 17.6276 10.9906 17.496 11.2885C17.3552 11.6073 17.1411 11.891 16.7756 12.3658C15.4178 14.1299 13.208 16.0423 9.99999 16.0423C6.79196 16.0423 4.58219 14.1299 3.22434 12.3658C2.85885 11.891 2.64477 11.6073 2.50396 11.2885C2.37235 10.9906 2.29166 10.6265 2.29166 10.0007C2.29166 9.37476 2.37235 9.01066 2.50396 8.71277C2.64477 8.39403 2.85885 8.11031 3.22434 7.63548Z" fill="#C5C5C5"/>
</svg>
